<svg width="24" height="24" viewBox="0 0 24 24" fill="none" xmlns="http://www.w3.org/2000/svg">
  <path
    d="M12.0199 2.91003C10.4286 2.91003 8.90252 3.54218 7.77731 4.66739C6.65209 5.79261 6.01995 7.31874 6.01995 8.91003V11.8C5.98794 12.5209 5.79307 13.2252 5.44995 13.86L4.29995 15.77C4.12821 16.0226 4.01922 16.3124 3.98205 16.6156C3.94487 16.9187 3.98058 17.2263 4.0862 17.5129C4.19182 17.7994 4.36431 18.0566 4.58933 18.2631C4.81434 18.4696 5.08539 18.6194 5.37995 18.7C9.68608 20.14 14.3438 20.14 18.6499 18.7C18.9344 18.6052 19.1939 18.4476 19.4092 18.2389C19.6245 18.0302 19.7901 17.7758 19.8938 17.4945C19.9975 17.2131 20.0366 16.9121 20.0082 16.6136C19.9799 16.3151 19.8848 16.0268 19.7299 15.77L18.5799 13.86C18.2445 13.2227 18.0533 12.5195 18.0199 11.8V8.91003C18.0152 7.3202 17.3815 5.79683 16.2573 4.67264C15.1332 3.54845 13.6098 2.91478 12.0199 2.91003Z"
    stroke="currentColor" stroke-width="1.5" stroke-linecap="round"
  />
  <path
    d="M13.8699 3.20017C13.5559 3.10766 13.2348 3.04077 12.9099 3.00017C11.9925 2.87842 11.0599 2.94649 10.1699 3.20017C10.3161 2.82864 10.5707 2.50971 10.9007 2.28493C11.2307 2.06016 11.6207 1.93994 12.0199 1.93994C12.4192 1.93994 12.8092 2.06016 13.1392 2.28493C13.4691 2.50971 13.7238 2.82864 13.8699 3.20017Z"
    stroke="currentColor" stroke-width="1.5" stroke-linecap="round" stroke-linejoin="round"
  />
  <path
    d="M15.02 19.0601C15.0176 19.855 14.7008 20.6167 14.1387 21.1788C13.5766 21.7409 12.8149 22.0577 12.02 22.0601C11.2249 22.0582 10.4628 21.7418 9.90002 21.1801C9.33827 20.6173 9.02192 19.8552 9.02002 19.0601"
    stroke="currentColor" stroke-width="1.5"
  />
</svg>